<svg width="101" height="87" viewBox="0 0 101 87" fill="none" xmlns="http://www.w3.org/2000/svg">
<path d="M100.161 38.1634C98.9299 27.7645 93.8997 18.1646 86.012 11.1608C78.1243 4.15696 67.9197 0.229395 57.3086 0.113281H56.8271C49.1305 0.119565 41.5715 2.12667 34.9114 5.93243L34.5824 6.13036L34.2935 6.29663C9.35258 20.9514 0.453125 54.7896 0.453125 75.3902L20.515 63.9498C27.5929 77.2586 41.1788 86.023 56.3215 86.1892H56.803C58.4926 86.1896 60.1807 86.0918 61.8586 85.8963C67.5505 85.2438 73.0563 83.4914 78.0617 80.7394C83.0671 77.9873 87.474 74.2895 91.0308 69.857C94.5875 65.4245 97.2245 60.3442 98.791 54.9061C100.358 49.4681 100.823 43.7789 100.161 38.1634Z" fill="#0050FF"/>
</svg>
