<svg width="101" height="45" viewBox="0 0 101 45" fill="none" xmlns="http://www.w3.org/2000/svg">
<path fill-rule="evenodd" clip-rule="evenodd" d="M0.962891 26.6832C0.962891 28.5335 1.03448 29.7391 1.47595 31.5058C1.75037 32.6041 2.14411 33.6187 2.59751 34.6334C2.91966 35.3496 3.32533 36.0062 3.71907 36.6747C4.30372 37.6655 5.07927 38.4772 5.80709 39.3367C6.04572 39.6232 6.36787 39.85 6.61844 40.1126C6.79741 40.3036 6.97638 40.4349 7.17922 40.602C7.2866 40.6975 7.33433 40.7453 7.45364 40.8408L8.37237 41.5212C9.41041 42.2852 10.0189 42.5359 11.0689 43.073C11.5223 43.2998 12.0592 43.5147 12.5603 43.6818C14.2308 44.2668 16.0205 44.5891 17.8341 44.6368H18.8244C20.4471 44.5891 22.0578 44.3264 23.5612 43.8131L25.2555 43.1685C26.6873 42.5478 28.4054 41.4973 29.5389 40.4349C29.9446 40.0529 30.3622 39.7067 30.744 39.3009C30.9349 39.0979 31.1019 38.8592 31.3167 38.6682C31.4599 38.9308 32.7008 40.0768 32.9513 40.2678C34.1683 41.2586 35.5882 42.2374 37.0558 42.8343L38.6665 43.4431C38.9648 43.5386 39.2273 43.6102 39.5375 43.7057L40.8739 44.0041C41.0648 44.028 41.2318 44.0638 41.3869 44.0758C45.1573 44.6368 49.0231 43.7893 52.2804 41.8554C52.4832 41.7361 52.6264 41.6286 52.8292 41.5093C53.1991 41.2944 53.5332 41.0198 53.8792 40.7691C54.0582 40.6378 54.2133 40.5185 54.3684 40.3633C54.4639 40.2797 54.5116 40.2558 54.607 40.1723L55.3349 39.5038C55.3707 39.468 55.3468 39.4919 55.3945 39.4441C55.3945 39.4441 55.4065 39.4322 55.4184 39.4202L55.6332 39.2054C55.8002 39.0144 56.0269 38.8353 56.182 38.6324C56.5638 38.1191 56.886 37.7848 57.3752 37.1283C57.5064 36.9492 57.6138 36.7821 57.7331 36.5911C57.9717 36.233 58.2104 35.8629 58.4013 35.469C58.5087 35.2422 58.6041 35.099 58.7115 34.8841C59.0814 34.1559 59.8689 32.3653 59.9285 31.6252C60.1552 31.8878 60.4654 32.5921 60.6325 32.9025C60.8711 33.3322 61.062 33.7859 61.3245 34.2037L64.0807 39.3964C64.1642 39.5754 64.2358 39.659 64.3193 39.8261C64.6415 40.4707 65.0949 41.4138 65.5005 41.9509C65.8943 42.4762 66.3238 42.8582 66.8965 43.2043C68.5073 44.1713 70.6669 44.0041 72.1225 42.8582C72.2657 42.7507 72.3731 42.6552 72.4924 42.5359C72.731 42.2971 72.9697 42.0464 73.1486 41.748C73.5662 41.0676 74.0435 40.0171 74.3895 39.4441C74.485 39.277 74.5446 39.1576 74.6282 38.9905L75.8571 36.6747C75.9526 36.4837 76.0361 36.3643 76.1196 36.1972C76.6565 35.1109 77.277 34.0365 77.8377 32.9622L78.6013 31.5417C79.2695 30.3121 79.89 29.0587 80.582 27.8292L82.0615 25.0239C82.1569 24.8568 82.2166 24.7494 82.3121 24.5703C82.4075 24.3793 82.4791 24.2838 82.5746 24.0928L83.0757 23.1498C83.1711 22.9946 83.2308 22.8514 83.3143 22.6842L86.0347 17.5751C86.8818 16.0352 86.8102 14.2446 85.9273 12.7524C85.8319 12.5853 85.7603 12.5137 85.6529 12.3585L85.2711 11.9288C85.2114 11.8691 85.2472 11.9049 85.1876 11.8572L84.6506 11.4155C84.245 11.1051 83.8035 10.9261 83.3143 10.7709C82.6461 10.5441 81.7751 10.5202 81.0354 10.6634C79.9735 10.8783 79.2457 11.3677 78.5298 12.0601C78.3389 12.2511 78.0883 12.5853 77.957 12.8121L77.2889 14.0894C77.2173 14.2327 77.1338 14.364 77.0622 14.5192C76.919 14.8057 76.7758 15.1041 76.6207 15.4025L71.3112 25.764C71.2396 25.9073 71.1561 26.0505 71.0845 26.1938L70.655 27.0413C70.6072 27.1249 70.5953 27.1607 70.5476 27.2443C70.5118 27.3159 70.5237 27.292 70.4998 27.3517C70.4641 27.4114 70.476 27.4114 70.4402 27.483C70.0226 28.2231 69.6288 28.9393 69.426 29.775L69.3186 30.1331C69.3186 30.145 69.3067 30.1808 69.2948 30.1928C69.259 30.2763 69.2828 30.2286 69.259 30.2644C69.1516 29.7869 69.0203 29.2616 68.7936 28.82C68.722 28.6767 68.6505 28.5335 68.5669 28.3783L60.8472 13.3374C60.7995 13.2538 60.7876 13.2299 60.7399 13.1344C60.0956 11.8452 58.6638 10.747 57.0888 10.5799C56.9218 10.5679 56.5996 10.5202 56.4684 10.5321C54.7144 10.6754 53.2469 11.4632 52.4236 13.0031C51.8151 14.1372 51.7196 15.3667 52.0656 16.6082C52.2923 17.4318 53.0559 18.6256 53.4736 19.4492C53.5571 19.6164 53.6287 19.7357 53.7241 19.9029L55.4542 23.1617C52.5787 23.1617 49.7151 23.1617 46.8396 23.1617C45.551 23.1617 44.3817 23.2572 43.4988 24.1406C43.1051 24.5345 42.8187 24.8449 42.5681 25.3582C41.5182 27.4472 42.4488 30.1331 44.6442 30.9687C45.5152 31.3029 46.3385 31.2313 47.4959 31.2313C48.5458 31.2313 49.5958 31.2313 50.6577 31.2313C50.5145 31.4939 50.2998 31.7804 50.1089 32.0072C49.3214 32.9144 49.0589 33.2009 47.985 33.8933C47.9015 33.953 47.8777 33.9649 47.7941 34.0127C47.7106 34.0485 47.6629 34.0843 47.5674 34.132C45.5391 35.1706 42.6397 35.3377 40.6114 34.3111C39.9909 34.0007 39.4063 33.6546 38.8932 33.189C38.3802 32.7354 37.9387 32.2221 37.533 31.661C37.4018 31.47 37.2944 31.279 37.1751 31.0761C36.0654 29.1423 35.8149 26.5877 36.5308 24.4629C36.6501 24.1167 36.7575 23.8063 36.9007 23.5079L37.6523 22.2306C38.0103 21.7054 38.4637 21.2518 38.9409 20.834C39.5495 20.2848 40.2653 19.879 41.029 19.5686C42.6874 18.9001 43.0454 19.3537 44.6084 17.778C44.8351 17.5512 45.0022 17.2528 45.1692 16.9782C45.8612 15.8442 45.9448 14.0536 45.372 12.8599C45.1334 12.3585 44.8351 11.9049 44.4533 11.511L44.3101 11.3797C43.988 11.0932 43.6658 10.8186 43.2721 10.6276C41.3273 9.64877 38.9529 10.4247 37.1035 11.2125L35.4927 12.0243C34.4428 12.6569 33.6433 13.2061 32.7008 14.0297C32.307 14.364 31.782 14.8295 31.4837 15.2235L31.1497 15.5935C30.5173 16.3456 29.9326 17.1095 29.4196 17.9571C29.169 18.3749 28.9662 18.733 28.7395 19.1866C27.5821 21.4905 26.8782 23.9854 26.8782 26.9936C26.8782 27.8411 26.9378 28.6528 27.0452 29.4407C27.0571 29.5243 27.1168 29.8227 27.1168 29.9182C27.1049 30.1331 26.7708 30.5389 26.6395 30.7299L24.9453 32.7354L24.2294 33.3442C24.1339 33.4158 24.0504 33.4874 23.943 33.571C23.8237 33.6546 23.7402 33.7023 23.6209 33.7978C22.4396 34.6573 20.4232 35.4213 18.884 35.4213C18.4187 35.4213 17.9057 35.4571 17.4284 35.3974C17.2375 35.3735 17.1301 35.3616 16.9392 35.3377C16.4142 35.2541 15.7461 35.0631 15.2927 34.8722C13.3836 34.0843 11.8444 32.6518 10.9496 30.8016C9.72063 28.235 9.9354 25.2865 11.3791 22.8633C12.0473 21.7412 13.0257 20.8101 14.1472 20.1297L15.2091 19.5925L16.3904 19.2105C16.796 19.0911 17.2614 19.0434 17.7148 18.9837C18.9318 18.8046 19.8386 18.9001 20.8528 18.1839C20.9243 18.1361 20.9959 18.0765 21.0794 18.0168C22.0459 17.2289 22.8453 16.0233 22.8453 14.6385C22.8453 13.6 22.7141 12.8479 22.2249 12.0243C22.1533 11.9049 22.1056 11.8094 22.0101 11.69C21.4971 11.0096 20.9721 10.556 20.1727 10.174C18.4306 9.32646 15.5313 9.93526 13.8967 10.3173L12.6797 10.6873C12.3933 10.7828 12.1785 10.8664 11.916 10.9738C11.6535 11.0812 11.4149 11.1887 11.1524 11.2961C10.1979 11.69 9.2911 12.275 8.44396 12.836C7.59682 13.3971 6.8332 14.0775 6.11731 14.7937C5.74743 15.1638 5.42528 15.4741 5.10313 15.88C4.30372 16.8708 3.5401 17.8974 2.96739 19.0434C2.8958 19.1866 2.83614 19.2702 2.77648 19.4015C2.70489 19.5567 2.6691 19.6402 2.60944 19.7715L1.989 21.2637C1.36856 22.911 0.974822 24.8568 0.974822 26.6832H0.962891Z" fill="#EE2E24"/>
<path fill-rule="evenodd" clip-rule="evenodd" d="M95.0786 11.1283L95.0906 11.0448C94.8877 10.997 94.6372 10.8896 94.4463 10.8179C93.623 10.5076 93.9213 10.5076 93.1219 10.806C92.919 10.8776 92.6327 10.9612 92.4656 11.0448V9.91071L90.7117 8.93186L90.5924 8.91992C90.1509 9.12285 88.7191 9.58841 88.4328 9.74359C87.0249 10.5314 87.9674 12.8115 89.6498 12.131L91.8333 11.3193C91.9764 11.2716 92.2628 11.1283 92.4179 11.1164C92.4179 11.6297 92.3582 13.0383 92.4418 13.4322C92.6446 14.3991 93.802 14.8408 94.6133 14.1962C94.8281 14.0291 95.007 13.7545 95.0786 13.4441C95.1383 13.1696 95.186 11.379 95.0786 11.1044V11.1283Z" fill="#EE2E24"/>
<path fill-rule="evenodd" clip-rule="evenodd" d="M93.7661 5.12405V5.27924L94.4581 7.22501C94.6371 7.21307 95.7229 6.56846 95.9615 6.42521C96.0808 6.35359 96.0808 6.27003 96.1286 6.3894C96.2121 6.25809 96.1047 6.32972 96.2359 6.21034L97.5126 2.56949C97.62 2.25912 97.6916 2.16362 97.6797 1.76969C97.6797 1.06539 97.1547 0.575967 96.5581 0.480469H96.1405C95.878 0.528218 95.6274 0.64759 95.4127 0.86246C95.1979 1.07733 95.174 1.16089 95.0547 1.47126L93.7661 5.12405Z" fill="#F26F21"/>
<path fill-rule="evenodd" clip-rule="evenodd" d="M91.3084 6.23422L91.38 6.34165L92.6328 7.03401C92.788 7.12951 92.9192 7.17726 93.0504 7.27276L93.7544 5.27924V5.12405L92.7283 2.19943C92.5135 1.59063 92.3465 0.683402 91.4994 0.504343C91.4636 0.492406 91.4158 0.492406 91.38 0.480469H90.9744C90.3778 0.564029 89.8767 1.01764 89.8289 1.74582C89.8051 2.12781 90.1153 2.89179 90.2585 3.26185C90.4494 3.76321 90.5926 4.25264 90.7715 4.73013C90.867 4.96887 90.9386 5.20761 91.0221 5.44636C91.0698 5.58961 91.0937 5.6851 91.1533 5.82835C91.213 5.98354 91.2488 6.05516 91.2846 6.22228L91.3084 6.23422Z" fill="#EE2E24"/>
<path fill-rule="evenodd" clip-rule="evenodd" d="M96.2479 6.21C96.1166 6.32937 96.224 6.25775 96.1405 6.38906L95.4365 8.39452L96.8444 8.91975H96.9638L99.875 7.24854C100.388 6.96205 101.14 6.58005 100.925 5.56539C100.758 4.80141 99.9824 4.3836 99.2546 4.56266C98.9921 4.63428 97.262 5.66089 96.8683 5.87576C96.6535 5.99513 96.4746 6.1145 96.2598 6.21H96.2479Z" fill="#EE2E24"/>
<path fill-rule="evenodd" clip-rule="evenodd" d="M90.6044 8.93267L90.7237 8.94461C90.8669 8.82523 91.9169 8.50293 92.1316 8.39549C92.06 8.24031 92.0123 8.04931 91.9526 7.88219L91.5828 6.84365C91.535 6.68847 91.4635 6.4736 91.3919 6.33035L91.3203 6.22292L89.5544 5.20825C89.3993 5.12469 88.5283 4.61139 88.3613 4.56364C88.1465 4.50395 87.7289 4.50395 87.5141 4.58751C87.1084 4.73076 86.7028 5.13663 86.6431 5.59024C86.4761 6.80784 87.3948 7.05852 88.2658 7.58376L90.0317 8.58649C90.1629 8.65811 90.5328 8.84911 90.6163 8.92073L90.6044 8.93267Z" fill="#F26F21"/>
<path fill-rule="evenodd" clip-rule="evenodd" d="M95.0905 11.0448L95.0786 11.1283C95.2576 11.1402 96.0092 11.4387 96.2121 11.5222C96.3911 11.5939 96.5581 11.6535 96.749 11.7252L97.8467 12.143C98.4671 12.3937 99.0756 12.2743 99.4813 11.761C100.018 11.0806 99.7677 10.1136 99.0995 9.75553C98.9325 9.67197 98.7535 9.61228 98.5626 9.54066L96.9399 8.91992H96.8206L95.0667 9.91071L95.0786 11.0448H95.0905Z" fill="#F26F21"/>
</svg>
