<svg width="101" height="80" viewBox="0 0 101 80" fill="none" xmlns="http://www.w3.org/2000/svg">
<path d="M31.1456 75.9134C27.856 77.2402 24.547 78.4923 21.0271 79.1034C14.3209 80.2679 7.75028 79.6397 1.27657 77.6633C1.07708 77.5904 0.882241 77.5054 0.693146 77.409C0.940727 77.0501 1.33901 77.0244 1.65117 76.8962C7.05324 74.7377 11.9987 71.5914 16.2305 67.621C16.8311 67.0633 16.7988 66.8069 16.2154 66.2471C5.04627 55.5488 -0.226136 42.4703 0.523066 27.097C0.953642 18.3538 3.72009 10.3007 8.54685 2.95272C8.72984 2.67496 8.81811 2.26258 9.28098 2.26472C9.79336 2.76683 9.49627 3.33305 9.39724 3.87149C8.3208 9.92038 9.55655 15.4095 13.4877 20.1935C19.0055 26.9218 28.1424 28.9153 36.0348 25.1997C39.7248 23.4626 43.0058 21.125 46.1749 18.6102C50.4591 15.2108 54.7584 11.8327 59.3074 8.78154C65.2515 4.80735 71.736 2.15788 78.8513 1.14938C82.3303 0.65581 85.8288 0.427186 89.3423 0.807512C89.7728 0.854519 90.2034 0.88016 90.4704 1.30322C90.5177 1.96986 89.9451 1.9955 89.5403 2.11729C87.7863 2.64068 86.0616 3.2562 84.3734 3.96123C77.0536 7.05939 71.4195 11.9481 67.5809 18.9179C64.6229 24.2809 62.3344 29.9174 60.1535 35.6095C57.4107 42.7694 54.4527 49.8375 50.9392 56.662C48.9284 60.5721 46.6679 64.354 43.5462 67.5034C40.2921 70.7839 36.521 73.5162 32.3814 75.5929C31.9939 75.8172 31.5633 75.83 31.1456 75.9134Z" fill="#00E6B9"/>
<path d="M31.1455 75.9124C31.3123 75.7814 31.4886 75.6629 31.673 75.5577C40.1704 71.4318 46.3621 65.0752 50.5516 56.6696C54.3858 48.9776 57.7142 41.0719 60.7627 33.0445C62.5099 28.4498 64.5226 23.9589 66.7907 19.5942C71.7294 10.0818 79.7231 4.5179 89.8825 1.66759C90.1215 1.60135 90.3475 1.49879 90.58 1.41333C90.6799 1.32492 90.8104 1.27841 90.9441 1.28359C91.0779 1.28877 91.2043 1.34524 91.297 1.4411C95.3655 7.22384 98.1705 13.7872 99.5317 20.7095C104.625 46.5632 88.1042 72.1048 62.2094 78.3268C58.9801 79.1045 55.6948 79.6472 52.3449 79.628C51.0532 79.618 49.7615 79.618 48.4697 79.628C43.2232 79.5575 38.1768 78.4614 33.2553 76.7179C32.5341 76.4679 31.8452 76.1816 31.1455 75.9124Z" fill="#CDFAF0"/>
<path d="M48.0348 30.0879C48.0348 28.6136 49.1113 27.4619 50.4396 27.4747C51.7679 27.4875 52.8078 28.6734 52.7884 30.1455C52.769 31.6177 51.6861 32.7993 50.3815 32.7801C49.0768 32.7608 48.0198 31.5429 48.0348 30.0879Z" fill="#000346"/>
</svg>
