<svg width="101" height="45" viewBox="0 0 101 45" fill="none" xmlns="http://www.w3.org/2000/svg">
<path d="M25.2529 21.3091L14.6619 11.5744C13.9182 10.907 13.4632 9.99025 13.4632 8.94332C13.4632 6.91454 15.2028 5.26526 17.3446 5.26526H29.0627V0.189453H11.1429C5.58467 0.189453 0.962891 3.93812 0.962891 9.80933C0.962891 12.3158 1.97869 14.5983 3.64231 16.3116L16.1228 28.0992C16.1228 28.0992 18.2249 29.6227 17.4956 32.1314C16.7651 34.6401 13.5778 34.6401 12.3835 34.6401C11.1881 34.6401 0.966194 34.6401 0.966194 34.6401V44.9263H18.2943C25.3036 44.9263 30.9874 39.5603 30.9874 32.9367V32.843C31.1813 27.8962 28.5217 24.344 25.2529 21.3091Z" fill="#005293"/>
<path d="M95.2165 21.3091L84.6288 11.5744C83.884 10.907 83.4279 9.99025 83.4279 8.94332C83.4279 6.91454 85.1698 5.26526 87.3116 5.26526H99.0285V0.189453H81.1088C75.5505 0.189453 70.9287 3.93812 70.9287 9.80933C70.9287 12.3158 71.9445 14.5983 73.6081 16.3116L86.0864 28.0992C86.0864 28.0992 88.1907 29.6227 87.4592 32.1314C86.7309 34.6401 83.5436 34.6401 82.3471 34.6401C81.1517 34.6401 70.9309 34.6401 70.9309 34.6401V44.9263H88.2601C95.2683 44.9263 100.953 39.5603 100.953 32.9367V32.843C101.144 27.8962 98.4887 24.344 95.2165 21.3091Z" fill="#005293"/>
<path d="M68.5126 31.9375C68.5126 26.5672 65.517 21.3866 59.5181 19.3346C64.0583 17.9413 66.4127 14.5975 66.4127 9.89677C66.4127 6.74714 64.921 4.1094 62.5809 2.38841C59.2151 0.067285 54.1724 0.248209 54.1724 0.248209L54.1691 0.238281C48.9238 0.238281 34.3918 0.238281 34.3918 0.238281L34.3996 44.92C34.3996 44.92 48.8114 44.92 55.4405 44.92C57.2154 44.8383 60.9668 44.3496 63.9988 41.8696C66.6915 39.4944 68.5126 35.941 68.5126 31.9375ZM45.093 5.34498H49.8404C50.5609 5.34498 55.5254 5.34608 55.9363 10.1825C56.2305 13.6498 53.8739 15.8165 50.0674 15.8165C48.3531 15.8165 45.093 15.8165 45.093 15.8165V5.34498ZM50.7967 34.6459C49.0813 34.6459 45.093 34.6459 45.093 34.6459V22.7424H50.5731C51.2914 22.7424 56.8276 22.7457 57.2386 28.2462C57.5338 32.1836 54.6043 34.6459 50.7967 34.6459Z" fill="#005293"/>
</svg>
